<svg xmlns="http://www.w3.org/2000/svg" viewBox="0 0 800 688"><path fill="#0000AF" d="M597.79,203.16a30.49,30.49,0,0,1,.35,3.42q0,24.72,0,49.43v3.74h56.25v56.37H598.29V429H541.93v56.47H485.3v56.31H203.18V485.69h56.11V429.31H203V372.64H146.74V316.32h56V259.76h-56V203.55H315.82v56h56.49V203.44h56.41V147.1H541.67v56c1,.11,1.62.23,2.22.23h52.65c.45,0,.89-.08,1.33-.12Z"/><path fill="#000AF" d="M597.87,203.22a28,28,0,0,0,.33-3.15q0-24.84,0-49.67v-3.31h56.18v55.85a2.32,2.32,0,0,1-.75.28q-27.92,0-55.84-.05Z"/></svg>
